<?xml version="1.0" standalone="no"?>
<!DOCTYPE svg PUBLIC "-//W3C//DTD SVG 20010904//EN"
 "http://www.w3.org/TR/2001/REC-SVG-20010904/DTD/svg10.dtd">
<svg version="1.0" xmlns="http://www.w3.org/2000/svg"
 width="512.000000pt" height="512.000000pt" viewBox="0 0 512.000000 512.000000"
 preserveAspectRatio="xMidYMid meet">
<metadata>
Created by potrace 1.14, written by Peter Selinger 2001-2017
</metadata>
<g transform="translate(0.000000,512.000000) scale(0.100000,-0.100000)"
fill="#000000" stroke="none">
<path d="M2405 5113 c-195 -24 -378 -79 -560 -169 -162 -80 -273 -159 -443
-316 -204 -188 -347 -282 -542 -355 -85 -32 -245 -70 -352 -83 -97 -12 -161
-20 -186 -25 -9 -2 -27 -4 -40 -4 -13 -1 -34 -12 -48 -26 -22 -22 -24 -31 -19
-77 5 -54 11 -108 19 -188 3 -25 8 -76 11 -115 3 -38 8 -86 10 -105 3 -19 7
-60 10 -90 12 -132 16 -177 20 -205 2 -16 7 -57 10 -90 5 -57 8 -85 20 -180 3
-22 7 -65 10 -95 3 -30 10 -77 15 -105 5 -27 12 -75 15 -105 25 -227 95 -361
279 -537 93 -90 168 -134 302 -176 76 -24 291 -68 392 -81 57 -7 229 -24 266
-25 24 -1 26 8 -74 -306 -45 -143 -131 -417 -192 -610 -60 -192 -136 -435
-170 -540 -33 -104 -69 -219 -80 -255 -34 -110 -22 -175 44 -221 48 -35 132
-33 180 3 42 32 68 96 264 648 108 303 171 464 184 471 8 5 121 59 250 120
129 61 315 149 412 195 l177 85 166 -81 c92 -44 169 -80 170 -80 2 0 103 -49
226 -108 l224 -109 194 -534 c106 -294 202 -548 212 -565 58 -95 194 -96 256
-3 32 48 33 93 4 184 -39 120 -70 219 -196 620 -31 99 -67 216 -82 260 -14 44
-38 121 -53 170 -16 50 -67 213 -114 363 -47 151 -86 277 -86 282 0 4 48 11
108 15 59 4 116 9 127 10 11 2 41 6 66 9 198 27 359 74 529 153 237 110 385
300 405 523 1 14 5 43 8 65 4 22 9 60 12 85 3 25 10 77 15 115 5 39 12 95 15
125 3 30 8 71 10 90 2 19 6 58 9 85 4 28 8 70 11 95 10 90 16 146 20 180 3 19
7 67 10 105 3 39 8 77 10 85 2 8 7 47 10 85 3 39 8 84 10 100 2 17 7 57 10 90
3 33 8 78 11 101 10 78 -11 87 -306 129 -105 15 -300 58 -368 81 -114 40 -239
118 -367 229 -36 32 -174 156 -189 170 -156 150 -391 291 -600 360 -173 58
-290 77 -476 80 -91 1 -178 0 -195 -2z m408 -134 c186 -32 375 -105 535 -208
99 -64 169 -120 343 -276 74 -66 152 -133 173 -150 22 -16 51 -39 65 -51 86
-68 247 -142 369 -168 35 -8 36 -10 25 -94 -6 -51 -7 -53 -32 -47 -14 3 -46 7
-71 10 -78 9 -295 54 -366 76 -77 24 -167 67 -234 112 -40 27 -194 152 -228
184 -17 16 -34 17 -49 2 -11 -11 -7 -39 7 -49 6 -4 53 -45 144 -123 51 -45
192 -130 258 -156 69 -28 190 -62 268 -75 19 -3 46 -8 60 -11 14 -3 71 -13
128 -21 101 -16 103 -17 102 -43 -4 -48 0 -60 19 -71 25 -13 48 -4 58 23 9 29
9 31 17 117 4 41 9 84 11 95 2 11 4 26 4 33 1 12 12 12 81 -3 14 -3 72 -12
130 -21 125 -18 150 -27 146 -51 -2 -10 -7 -45 -10 -78 -4 -33 -9 -76 -11 -95
-2 -19 -7 -62 -10 -95 -3 -33 -8 -76 -10 -95 -3 -19 -7 -60 -9 -91 -3 -30 -7
-75 -10 -100 -3 -24 -8 -66 -11 -94 -3 -27 -7 -63 -10 -80 -2 -16 -7 -61 -10
-98 -4 -37 -8 -78 -10 -89 -3 -12 -7 -46 -10 -77 -3 -31 -9 -87 -15 -126 -9
-66 -12 -89 -25 -197 -30 -239 -147 -374 -419 -484 -82 -32 -229 -76 -301 -88
-16 -3 -41 -8 -55 -11 -14 -3 -41 -7 -60 -9 -19 -3 -60 -7 -90 -10 -105 -12
-217 -15 -705 -22 -890 -12 -1193 -8 -1495 21 -122 12 -155 16 -177 19 -12 3
-57 10 -100 16 -237 35 -401 101 -510 207 -127 124 -192 231 -218 360 -14 73
-15 79 -45 318 -20 156 -25 203 -35 295 -2 25 -7 65 -9 90 -6 53 -11 103 -26
260 -6 63 -13 133 -15 155 -2 22 -7 69 -11 105 -3 36 -7 77 -9 92 -3 31 2 34
90 43 66 7 78 9 179 25 38 6 73 13 77 16 12 7 17 -7 24 -76 3 -36 8 -76 10
-90 2 -14 6 -56 10 -95 3 -38 8 -81 10 -95 2 -14 6 -56 10 -95 8 -84 18 -105
50 -105 31 0 47 30 41 78 -3 20 -8 66 -11 102 -3 36 -8 76 -10 90 -2 14 -7 54
-10 90 -7 71 -11 113 -20 176 l-6 41 93 33 c230 80 403 192 625 405 254 244
571 399 898 438 89 11 309 3 408 -14z m-920 -3048 c10 -7 17 -21 17 -31 0 -10
-43 -137 -96 -281 -53 -145 -113 -311 -134 -369 -21 -58 -75 -206 -120 -330
-45 -124 -99 -272 -120 -330 -58 -161 -115 -317 -145 -400 -15 -41 -35 -80
-44 -87 -23 -18 -66 -16 -83 5 -33 38 -33 36 51 297 11 33 38 121 61 195 23
74 50 160 60 190 10 30 39 120 63 200 25 80 87 276 137 435 101 322 160 513
160 519 0 18 170 6 193 -13z m1513 20 c6 -1 18 -27 28 -58 21 -72 105 -337
156 -498 21 -66 47 -149 58 -185 37 -121 209 -668 278 -883 24 -76 46 -149 48
-162 6 -34 -28 -75 -62 -75 -52 0 -48 -7 -150 275 -540 1482 -552 1516 -552
1535 0 45 61 61 196 51z m-280 -17 c-3 -9 -6 -19 -6 -24 0 -5 -24 -20 -52 -33
-29 -14 -134 -64 -233 -112 -99 -47 -195 -93 -213 -102 -33 -16 -34 -15 -175
52 -367 174 -456 218 -453 224 2 3 259 7 571 8 510 2 566 1 561 -13z m-1052
-138 c231 -112 390 -186 397 -186 29 0 -9 -23 -144 -87 -83 -40 -237 -113
-341 -163 -104 -50 -192 -89 -196 -88 -11 4 192 558 204 558 5 0 42 -15 80
-34z m1162 -242 c50 -137 90 -250 89 -252 -3 -4 -74 28 -280 128 -104 50 -225
108 -267 127 -43 20 -78 39 -78 42 0 3 17 14 38 23 20 10 116 56 212 102 96
47 179 83 185 82 5 -1 51 -115 101 -252z"/>
<path d="M2936 4685 c-7 -19 11 -37 124 -117 47 -34 98 -74 115 -90 34 -33 69
-33 73 -2 2 16 -15 36 -73 83 -159 128 -225 162 -239 126z"/>
<path d="M4296 3627 c-8 -12 -15 -31 -14 -42 0 -21 -9 -145 -17 -205 -2 -19
-7 -70 -10 -113 -4 -43 -8 -86 -10 -95 -1 -9 -6 -55 -10 -102 -3 -47 -8 -92
-10 -100 -2 -8 -7 -40 -10 -70 -16 -144 -36 -199 -96 -264 -91 -99 -278 -183
-489 -220 -134 -23 -157 -25 -385 -32 -476 -15 -1350 -9 -1510 10 -75 9 -153
18 -181 21 -52 6 -185 34 -239 52 -94 29 -163 74 -236 150 -81 86 -122 163
-139 262 -12 74 -18 88 -40 91 -53 8 -64 -18 -45 -114 25 -131 67 -205 181
-319 37 -38 86 -79 109 -92 105 -62 291 -109 510 -131 33 -3 71 -7 85 -9 135
-23 1468 -23 1710 -1 242 22 460 82 600 165 149 89 220 195 244 366 18 124 26
185 31 244 2 25 6 69 9 96 3 28 8 86 12 130 3 44 8 87 9 96 2 9 6 63 10 121 7
100 6 107 -13 117 -30 16 -40 14 -56 -12z"/>
<path d="M2367 2924 c-1 -1 -74 -5 -162 -9 -88 -3 -173 -8 -190 -10 -16 -2
-61 -6 -100 -9 -38 -4 -81 -8 -95 -10 -14 -3 -52 -7 -85 -11 -172 -19 -380
-76 -446 -123 -59 -42 -76 -101 -36 -126 21 -13 47 0 62 32 19 41 200 99 398
127 20 3 52 7 70 10 17 2 64 7 102 10 39 3 80 8 93 10 150 25 969 25 1167 0
17 -2 62 -7 100 -10 39 -4 77 -8 85 -10 8 -1 38 -5 65 -9 87 -12 248 -47 310
-68 61 -20 105 -51 105 -75 0 -18 47 -28 65 -13 26 22 14 77 -24 108 -55 44
-211 97 -341 117 -25 4 -54 9 -65 11 -11 2 -40 7 -65 10 -25 3 -56 7 -70 9
-14 2 -56 7 -95 10 -38 3 -90 8 -115 10 -125 12 -723 28 -733 19z"/>
<path d="M3328 1812 c-4 -16 143 -433 165 -469 8 -13 37 -6 49 10 3 6 -9 53
-28 106 -77 213 -128 347 -137 359 -14 18 -44 15 -49 -6z"/>
<path d="M3576 1164 c-14 -13 -12 -25 18 -106 35 -98 54 -121 80 -99 18 15 18
18 -26 133 -31 80 -48 97 -72 72z"/>
</g>
</svg>
